%TF.GenerationSoftware,KiCad,Pcbnew,8.0.4*%
%TF.CreationDate,2024-07-22T18:27:50+09:00*%
%TF.ProjectId,RoboMaster branch circuit substrate-3,526f626f-4d61-4737-9465-72206272616e,rev?*%
%TF.SameCoordinates,Original*%
%TF.FileFunction,Copper,L1,Top*%
%TF.FilePolarity,Positive*%
%FSLAX46Y46*%
G04 Gerber Fmt 4.6, Leading zero omitted, Abs format (unit mm)*
G04 Created by KiCad (PCBNEW 8.0.4) date 2024-07-22 18:27:50*
%MOMM*%
%LPD*%
G01*
G04 APERTURE LIST*
G04 Aperture macros list*
%AMRoundRect*
0 Rectangle with rounded corners*
0 $1 Rounding radius*
0 $2 $3 $4 $5 $6 $7 $8 $9 X,Y pos of 4 corners*
0 Add a 4 corners polygon primitive as box body*
4,1,4,$2,$3,$4,$5,$6,$7,$8,$9,$2,$3,0*
0 Add four circle primitives for the rounded corners*
1,1,$1+$1,$2,$3*
1,1,$1+$1,$4,$5*
1,1,$1+$1,$6,$7*
1,1,$1+$1,$8,$9*
0 Add four rect primitives between the rounded corners*
20,1,$1+$1,$2,$3,$4,$5,0*
20,1,$1+$1,$4,$5,$6,$7,0*
20,1,$1+$1,$6,$7,$8,$9,0*
20,1,$1+$1,$8,$9,$2,$3,0*%
G04 Aperture macros list end*
%TA.AperFunction,ComponentPad*%
%ADD10R,3.800000X3.800000*%
%TD*%
%TA.AperFunction,ComponentPad*%
%ADD11C,4.000000*%
%TD*%
%TA.AperFunction,ComponentPad*%
%ADD12RoundRect,0.250000X-0.600000X-0.725000X0.600000X-0.725000X0.600000X0.725000X-0.600000X0.725000X0*%
%TD*%
%TA.AperFunction,ComponentPad*%
%ADD13O,1.700000X1.950000*%
%TD*%
%TA.AperFunction,ComponentPad*%
%ADD14R,2.000000X0.900000*%
%TD*%
%TA.AperFunction,ComponentPad*%
%ADD15RoundRect,1.025000X1.025000X-1.025000X1.025000X1.025000X-1.025000X1.025000X-1.025000X-1.025000X0*%
%TD*%
%TA.AperFunction,ComponentPad*%
%ADD16C,4.100000*%
%TD*%
%TA.AperFunction,ComponentPad*%
%ADD17RoundRect,1.025000X-1.025000X1.025000X-1.025000X-1.025000X1.025000X-1.025000X1.025000X1.025000X0*%
%TD*%
%TA.AperFunction,Conductor*%
%ADD18C,0.200000*%
%TD*%
G04 APERTURE END LIST*
D10*
%TO.P,J5,1,Pin_1*%
%TO.N,/+*%
X168870000Y-96306666D03*
D11*
%TO.P,J5,2,Pin_2*%
%TO.N,/-*%
X168870000Y-101306666D03*
%TD*%
D12*
%TO.P,J8,1,Pin_1*%
%TO.N,/TX*%
X164380000Y-113890000D03*
D13*
%TO.P,J8,2,Pin_2*%
%TO.N,/RX*%
X166880000Y-113890000D03*
%TD*%
D12*
%TO.P,J6,1,Pin_1*%
%TO.N,+5V*%
X160640000Y-122690000D03*
D13*
%TO.P,J6,2,Pin_2*%
%TO.N,/TX*%
X163140000Y-122690000D03*
%TO.P,J6,3,Pin_3*%
%TO.N,/RX*%
X165640000Y-122690000D03*
%TO.P,J6,4,Pin_4*%
%TO.N,GND*%
X168140000Y-122690000D03*
%TD*%
D12*
%TO.P,J10,1,Pin_1*%
%TO.N,/TX*%
X147340000Y-113890000D03*
D13*
%TO.P,J10,2,Pin_2*%
%TO.N,/RX*%
X149840000Y-113890000D03*
%TD*%
D14*
%TO.P,J1,*%
%TO.N,*%
X133850000Y-105700000D03*
X133850000Y-92200000D03*
D15*
%TO.P,J1,1,Pin_1*%
%TO.N,/+*%
X139850000Y-95350000D03*
D16*
%TO.P,J1,2,Pin_2*%
%TO.N,/-*%
X139850000Y-102550000D03*
%TD*%
D12*
%TO.P,J7,1,Pin_1*%
%TO.N,+5V*%
X146080000Y-122690000D03*
D13*
%TO.P,J7,2,Pin_2*%
%TO.N,/TX*%
X148580000Y-122690000D03*
%TO.P,J7,3,Pin_3*%
%TO.N,/RX*%
X151080000Y-122690000D03*
%TO.P,J7,4,Pin_4*%
%TO.N,GND*%
X153580000Y-122690000D03*
%TD*%
D14*
%TO.P,J2,*%
%TO.N,*%
X184020000Y-92110000D03*
X184020000Y-105610000D03*
D17*
%TO.P,J2,1,Pin_1*%
%TO.N,/+*%
X178020000Y-95260000D03*
D16*
%TO.P,J2,2,Pin_2*%
%TO.N,/-*%
X178020000Y-102460000D03*
%TD*%
D10*
%TO.P,J3,1,Pin_1*%
%TO.N,/+*%
X148900000Y-96300000D03*
D11*
%TO.P,J3,2,Pin_2*%
%TO.N,/-*%
X148900000Y-101300000D03*
%TD*%
D12*
%TO.P,J9,1,Pin_1*%
%TO.N,/TX*%
X155870000Y-113890000D03*
D13*
%TO.P,J9,2,Pin_2*%
%TO.N,/RX*%
X158370000Y-113890000D03*
%TD*%
D10*
%TO.P,J4,1,Pin_1*%
%TO.N,/+*%
X158885000Y-96313332D03*
D11*
%TO.P,J4,2,Pin_2*%
%TO.N,/-*%
X158885000Y-101313332D03*
%TD*%
D18*
%TO.N,/RX*%
X166771668Y-113890000D02*
X166771668Y-121450000D01*
X166771668Y-113890000D02*
X165496668Y-112615000D01*
X151006668Y-112615000D02*
X156966668Y-112615000D01*
X149731668Y-121450000D02*
X150971668Y-122690000D01*
X166771668Y-121450000D02*
X165531668Y-122690000D01*
X149731668Y-113890000D02*
X149731668Y-121450000D01*
X156966668Y-112615000D02*
X158241668Y-113890000D01*
X149731668Y-113890000D02*
X151006668Y-112615000D01*
X165496668Y-112615000D02*
X159516668Y-112615000D01*
X159516668Y-112615000D02*
X158241668Y-113890000D01*
%TO.N,/TX*%
X163031668Y-120340000D02*
X163031668Y-122690000D01*
X158881412Y-119410256D02*
X158881412Y-119390000D01*
X148471668Y-115240000D02*
X148471668Y-122690000D01*
X147231668Y-114000000D02*
X148471668Y-115240000D01*
X147231668Y-113890000D02*
X147231668Y-114000000D01*
X163031668Y-115130000D02*
X164271668Y-113890000D01*
X147231668Y-113890000D02*
X147331668Y-113890000D01*
X155741668Y-122550000D02*
X158881412Y-119410256D01*
X163031668Y-122690000D02*
X163031668Y-115130000D01*
X155741668Y-113890000D02*
X155741668Y-122529744D01*
X154326668Y-123965000D02*
X155741668Y-122550000D01*
X148471668Y-122690000D02*
X149746668Y-123965000D01*
X149746668Y-123965000D02*
X154326668Y-123965000D01*
X158881412Y-119390000D02*
X162081668Y-119390000D01*
X162081668Y-119390000D02*
X163031668Y-120340000D01*
%TD*%
%TA.AperFunction,Conductor*%
%TO.N,/-*%
G36*
X185642502Y-99414877D02*
G01*
X185688389Y-99467566D01*
X185699724Y-99519360D01*
X185699724Y-104863910D01*
X185680039Y-104930949D01*
X185627235Y-104976704D01*
X185558077Y-104986648D01*
X185494521Y-104957623D01*
X185466894Y-104923341D01*
X185463795Y-104917667D01*
X185377547Y-104802455D01*
X185377544Y-104802452D01*
X185262335Y-104716206D01*
X185262328Y-104716202D01*
X185127482Y-104665908D01*
X185127483Y-104665908D01*
X185067883Y-104659501D01*
X185067881Y-104659500D01*
X185067873Y-104659500D01*
X185067864Y-104659500D01*
X182972129Y-104659500D01*
X182972123Y-104659501D01*
X182912516Y-104665908D01*
X182777671Y-104716202D01*
X182777664Y-104716206D01*
X182662455Y-104802452D01*
X182662452Y-104802455D01*
X182576206Y-104917664D01*
X182576202Y-104917671D01*
X182525908Y-105052517D01*
X182519501Y-105112116D01*
X182519500Y-105112135D01*
X182519500Y-106107870D01*
X182519501Y-106107876D01*
X182525908Y-106167483D01*
X182576202Y-106302328D01*
X182576206Y-106302335D01*
X182662452Y-106417544D01*
X182662455Y-106417547D01*
X182777664Y-106503793D01*
X182777671Y-106503797D01*
X182912517Y-106554091D01*
X182912516Y-106554091D01*
X182919444Y-106554835D01*
X182972127Y-106560500D01*
X185067872Y-106560499D01*
X185127483Y-106554091D01*
X185262331Y-106503796D01*
X185377546Y-106417546D01*
X185463796Y-106302331D01*
X185463797Y-106302326D01*
X185466892Y-106296661D01*
X185516298Y-106247256D01*
X185584571Y-106232405D01*
X185650035Y-106256822D01*
X185691906Y-106312756D01*
X185699724Y-106356089D01*
X185699724Y-107703697D01*
X185680039Y-107770736D01*
X185627235Y-107816491D01*
X185575730Y-107827697D01*
X131824282Y-107830095D01*
X131757241Y-107810413D01*
X131711484Y-107757611D01*
X131700276Y-107706095D01*
X131700276Y-105202135D01*
X132349500Y-105202135D01*
X132349500Y-106197870D01*
X132349501Y-106197876D01*
X132355908Y-106257483D01*
X132406202Y-106392328D01*
X132406206Y-106392335D01*
X132492452Y-106507544D01*
X132492455Y-106507547D01*
X132607664Y-106593793D01*
X132607671Y-106593797D01*
X132742517Y-106644091D01*
X132742516Y-106644091D01*
X132749444Y-106644835D01*
X132802127Y-106650500D01*
X134897872Y-106650499D01*
X134957483Y-106644091D01*
X135092331Y-106593796D01*
X135207546Y-106507546D01*
X135293796Y-106392331D01*
X135344091Y-106257483D01*
X135350500Y-106197873D01*
X135350499Y-105202128D01*
X135344091Y-105142517D01*
X135332759Y-105112135D01*
X135293797Y-105007671D01*
X135293793Y-105007664D01*
X135207547Y-104892455D01*
X135207544Y-104892452D01*
X135092335Y-104806206D01*
X135092328Y-104806202D01*
X134957482Y-104755908D01*
X134957483Y-104755908D01*
X134897883Y-104749501D01*
X134897881Y-104749500D01*
X134897873Y-104749500D01*
X134897864Y-104749500D01*
X132802129Y-104749500D01*
X132802123Y-104749501D01*
X132742516Y-104755908D01*
X132607671Y-104806202D01*
X132607664Y-104806206D01*
X132492455Y-104892452D01*
X132492452Y-104892455D01*
X132406206Y-105007664D01*
X132406202Y-105007671D01*
X132355908Y-105142517D01*
X132349501Y-105202116D01*
X132349501Y-105202123D01*
X132349500Y-105202135D01*
X131700276Y-105202135D01*
X131700276Y-102549994D01*
X137294958Y-102549994D01*
X137294958Y-102550005D01*
X137315103Y-102870221D01*
X137315104Y-102870228D01*
X137375230Y-103185417D01*
X137474382Y-103490575D01*
X137474384Y-103490580D01*
X137610998Y-103780897D01*
X137611001Y-103780903D01*
X137782921Y-104051806D01*
X137878773Y-104167671D01*
X138734728Y-103311716D01*
X138820278Y-103429466D01*
X138970534Y-103579722D01*
X139088281Y-103665270D01*
X138229175Y-104524375D01*
X138229176Y-104524377D01*
X138480928Y-104707285D01*
X138480946Y-104707297D01*
X138762116Y-104861871D01*
X138762124Y-104861875D01*
X139060444Y-104979987D01*
X139371233Y-105059784D01*
X139371242Y-105059786D01*
X139689556Y-105099999D01*
X139689570Y-105100000D01*
X140010430Y-105100000D01*
X140010443Y-105099999D01*
X140328757Y-105059786D01*
X140328766Y-105059784D01*
X140639555Y-104979987D01*
X140937875Y-104861875D01*
X140937883Y-104861871D01*
X141219053Y-104707297D01*
X141219063Y-104707290D01*
X141470822Y-104524375D01*
X141470823Y-104524375D01*
X140611718Y-103665270D01*
X140729466Y-103579722D01*
X140879722Y-103429466D01*
X140965270Y-103311717D01*
X141821225Y-104167672D01*
X141917068Y-104051819D01*
X142089002Y-103780896D01*
X142225615Y-103490580D01*
X142225617Y-103490575D01*
X142324769Y-103185417D01*
X142384895Y-102870228D01*
X142384896Y-102870221D01*
X142405042Y-102550005D01*
X142405042Y-102549994D01*
X142384896Y-102229778D01*
X142384895Y-102229771D01*
X142324769Y-101914582D01*
X142225617Y-101609424D01*
X142225615Y-101609419D01*
X142089001Y-101319102D01*
X142088998Y-101319096D01*
X141917078Y-101048193D01*
X141821224Y-100932326D01*
X140965269Y-101788281D01*
X140879722Y-101670534D01*
X140729466Y-101520278D01*
X140611716Y-101434728D01*
X141470823Y-100575623D01*
X141470822Y-100575621D01*
X141219071Y-100392714D01*
X141219053Y-100392702D01*
X140937883Y-100238128D01*
X140937875Y-100238124D01*
X140639555Y-100120012D01*
X140328766Y-100040215D01*
X140328757Y-100040213D01*
X140010443Y-100000000D01*
X139689556Y-100000000D01*
X139371242Y-100040213D01*
X139371233Y-100040215D01*
X139060444Y-100120012D01*
X138762124Y-100238124D01*
X138762116Y-100238128D01*
X138480946Y-100392702D01*
X138480928Y-100392714D01*
X138229176Y-100575622D01*
X138229175Y-100575623D01*
X139088281Y-101434729D01*
X138970534Y-101520278D01*
X138820278Y-101670534D01*
X138734729Y-101788282D01*
X137878773Y-100932326D01*
X137782924Y-101048188D01*
X137611001Y-101319096D01*
X137610998Y-101319102D01*
X137474384Y-101609419D01*
X137474382Y-101609424D01*
X137375230Y-101914582D01*
X137315104Y-102229771D01*
X137315103Y-102229778D01*
X137294958Y-102549994D01*
X131700276Y-102549994D01*
X131700276Y-99654076D01*
X131719961Y-99587037D01*
X131772765Y-99541282D01*
X131823965Y-99530076D01*
X131825848Y-99530071D01*
X131825854Y-99530072D01*
X146887027Y-99492324D01*
X146954113Y-99511840D01*
X147000000Y-99564529D01*
X147010117Y-99633662D01*
X146982879Y-99695363D01*
X146873459Y-99827629D01*
X146873457Y-99827632D01*
X146704903Y-100093232D01*
X146704900Y-100093238D01*
X146570965Y-100377862D01*
X146570963Y-100377867D01*
X146473755Y-100677041D01*
X146414808Y-100986050D01*
X146414807Y-100986057D01*
X146395057Y-101299994D01*
X146395057Y-101300005D01*
X146414807Y-101613942D01*
X146414808Y-101613949D01*
X146473755Y-101922958D01*
X146570963Y-102222132D01*
X146570965Y-102222137D01*
X146704900Y-102506761D01*
X146704903Y-102506767D01*
X146873457Y-102772367D01*
X146873460Y-102772371D01*
X146964286Y-102882160D01*
X147784728Y-102061717D01*
X147870278Y-102179466D01*
X148020534Y-102329722D01*
X148138281Y-102415270D01*
X147314971Y-103238579D01*
X147314972Y-103238581D01*
X147557772Y-103414985D01*
X147557790Y-103414996D01*
X147833447Y-103566540D01*
X147833455Y-103566544D01*
X148125926Y-103682340D01*
X148430620Y-103760573D01*
X148430629Y-103760575D01*
X148742701Y-103799999D01*
X148742715Y-103800000D01*
X149057285Y-103800000D01*
X149057298Y-103799999D01*
X149369370Y-103760575D01*
X149369379Y-103760573D01*
X149674073Y-103682340D01*
X149966544Y-103566544D01*
X149966552Y-103566540D01*
X150242209Y-103414996D01*
X150242219Y-103414990D01*
X150485026Y-103238579D01*
X150485027Y-103238579D01*
X149661718Y-102415270D01*
X149779466Y-102329722D01*
X149929722Y-102179466D01*
X150015270Y-102061718D01*
X150835712Y-102882160D01*
X150926544Y-102772364D01*
X151095096Y-102506767D01*
X151095099Y-102506761D01*
X151229034Y-102222137D01*
X151229036Y-102222132D01*
X151326244Y-101922958D01*
X151385191Y-101613949D01*
X151385192Y-101613942D01*
X151404943Y-101300005D01*
X151404943Y-101299994D01*
X151385192Y-100986057D01*
X151385191Y-100986050D01*
X151326244Y-100677041D01*
X151229036Y-100377867D01*
X151229034Y-100377862D01*
X151095099Y-100093238D01*
X151095096Y-100093232D01*
X150926542Y-99827632D01*
X150926540Y-99827629D01*
X150808792Y-99685296D01*
X150781227Y-99621094D01*
X150792748Y-99552181D01*
X150839697Y-99500436D01*
X150904018Y-99482257D01*
X156903823Y-99467220D01*
X156970910Y-99486737D01*
X157016797Y-99539426D01*
X157026914Y-99608559D01*
X156999676Y-99670260D01*
X156858459Y-99840961D01*
X156858457Y-99840964D01*
X156689903Y-100106564D01*
X156689900Y-100106570D01*
X156555965Y-100391194D01*
X156555963Y-100391199D01*
X156458755Y-100690373D01*
X156399808Y-100999382D01*
X156399807Y-100999389D01*
X156380057Y-101313326D01*
X156380057Y-101313337D01*
X156399807Y-101627274D01*
X156399808Y-101627281D01*
X156458755Y-101936290D01*
X156555963Y-102235464D01*
X156555965Y-102235469D01*
X156689900Y-102520093D01*
X156689903Y-102520099D01*
X156858457Y-102785699D01*
X156858460Y-102785703D01*
X156949286Y-102895492D01*
X157769728Y-102075049D01*
X157855278Y-102192798D01*
X158005534Y-102343054D01*
X158123281Y-102428602D01*
X157299971Y-103251911D01*
X157299972Y-103251913D01*
X157542772Y-103428317D01*
X157542790Y-103428328D01*
X157818447Y-103579872D01*
X157818455Y-103579876D01*
X158110926Y-103695672D01*
X158415620Y-103773905D01*
X158415629Y-103773907D01*
X158727701Y-103813331D01*
X158727715Y-103813332D01*
X159042285Y-103813332D01*
X159042298Y-103813331D01*
X159354370Y-103773907D01*
X159354379Y-103773905D01*
X159659073Y-103695672D01*
X159951544Y-103579876D01*
X159951552Y-103579872D01*
X160227209Y-103428328D01*
X160227219Y-103428322D01*
X160470026Y-103251911D01*
X160470027Y-103251911D01*
X159646718Y-102428602D01*
X159764466Y-102343054D01*
X159914722Y-102192798D01*
X160000270Y-102075050D01*
X160820712Y-102895492D01*
X160911544Y-102785696D01*
X161080096Y-102520099D01*
X161080099Y-102520093D01*
X161214034Y-102235469D01*
X161214036Y-102235464D01*
X161311244Y-101936290D01*
X161370191Y-101627281D01*
X161370192Y-101627274D01*
X161389943Y-101313337D01*
X161389943Y-101313326D01*
X161370192Y-100999389D01*
X161370191Y-100999382D01*
X161311244Y-100690373D01*
X161214036Y-100391199D01*
X161214034Y-100391194D01*
X161080099Y-100106570D01*
X161080096Y-100106564D01*
X160911544Y-99840967D01*
X160754580Y-99651230D01*
X160727015Y-99587027D01*
X160738536Y-99518114D01*
X160785485Y-99466369D01*
X160852957Y-99448221D01*
X160867444Y-99449405D01*
X160922279Y-99457149D01*
X166811339Y-99442389D01*
X166898494Y-99431275D01*
X166967482Y-99442321D01*
X167019549Y-99488913D01*
X167038161Y-99556258D01*
X167017409Y-99622975D01*
X167009721Y-99633319D01*
X166843459Y-99834295D01*
X166843457Y-99834298D01*
X166674903Y-100099898D01*
X166674900Y-100099904D01*
X166540965Y-100384528D01*
X166540963Y-100384533D01*
X166443755Y-100683707D01*
X166384808Y-100992716D01*
X166384807Y-100992723D01*
X166365057Y-101306660D01*
X166365057Y-101306671D01*
X166384807Y-101620608D01*
X166384808Y-101620615D01*
X166443755Y-101929624D01*
X166540963Y-102228798D01*
X166540965Y-102228803D01*
X166674900Y-102513427D01*
X166674903Y-102513433D01*
X166843457Y-102779033D01*
X166843460Y-102779037D01*
X166934286Y-102888826D01*
X167754728Y-102068383D01*
X167840278Y-102186132D01*
X167990534Y-102336388D01*
X168108281Y-102421936D01*
X167284971Y-103245245D01*
X167284972Y-103245247D01*
X167527772Y-103421651D01*
X167527790Y-103421662D01*
X167803447Y-103573206D01*
X167803455Y-103573210D01*
X168095926Y-103689006D01*
X168400620Y-103767239D01*
X168400629Y-103767241D01*
X168712701Y-103806665D01*
X168712715Y-103806666D01*
X169027285Y-103806666D01*
X169027298Y-103806665D01*
X169339370Y-103767241D01*
X169339379Y-103767239D01*
X169644073Y-103689006D01*
X169936544Y-103573210D01*
X169936552Y-103573206D01*
X170212209Y-103421662D01*
X170212219Y-103421656D01*
X170455026Y-103245245D01*
X170455027Y-103245245D01*
X169631718Y-102421936D01*
X169749466Y-102336388D01*
X169899722Y-102186132D01*
X169985270Y-102068384D01*
X170805712Y-102888826D01*
X170896544Y-102779030D01*
X171065096Y-102513433D01*
X171065099Y-102513427D01*
X171090243Y-102459994D01*
X175464958Y-102459994D01*
X175464958Y-102460005D01*
X175485103Y-102780221D01*
X175485104Y-102780228D01*
X175545230Y-103095417D01*
X175644382Y-103400575D01*
X175644384Y-103400580D01*
X175780998Y-103690897D01*
X175781001Y-103690903D01*
X175952921Y-103961806D01*
X176048773Y-104077671D01*
X176904728Y-103221716D01*
X176990278Y-103339466D01*
X177140534Y-103489722D01*
X177258281Y-103575270D01*
X176399175Y-104434375D01*
X176399176Y-104434377D01*
X176650928Y-104617285D01*
X176650946Y-104617297D01*
X176932116Y-104771871D01*
X176932124Y-104771875D01*
X177230444Y-104889987D01*
X177541233Y-104969784D01*
X177541242Y-104969786D01*
X177859556Y-105009999D01*
X177859570Y-105010000D01*
X178180430Y-105010000D01*
X178180443Y-105009999D01*
X178498757Y-104969786D01*
X178498766Y-104969784D01*
X178809555Y-104889987D01*
X179107875Y-104771875D01*
X179107883Y-104771871D01*
X179389053Y-104617297D01*
X179389063Y-104617290D01*
X179640822Y-104434375D01*
X179640823Y-104434375D01*
X178781718Y-103575270D01*
X178899466Y-103489722D01*
X179049722Y-103339466D01*
X179135270Y-103221717D01*
X179991225Y-104077672D01*
X180087068Y-103961819D01*
X180259002Y-103690896D01*
X180395615Y-103400580D01*
X180395617Y-103400575D01*
X180494769Y-103095417D01*
X180554895Y-102780228D01*
X180554896Y-102780221D01*
X180575042Y-102460005D01*
X180575042Y-102459994D01*
X180554896Y-102139778D01*
X180554895Y-102139771D01*
X180494769Y-101824582D01*
X180395617Y-101519424D01*
X180395615Y-101519419D01*
X180259001Y-101229102D01*
X180258998Y-101229096D01*
X180087078Y-100958193D01*
X179991224Y-100842326D01*
X179135269Y-101698281D01*
X179049722Y-101580534D01*
X178899466Y-101430278D01*
X178781716Y-101344728D01*
X179640823Y-100485623D01*
X179640822Y-100485621D01*
X179389071Y-100302714D01*
X179389053Y-100302702D01*
X179107883Y-100148128D01*
X179107875Y-100148124D01*
X178809555Y-100030012D01*
X178498766Y-99950215D01*
X178498757Y-99950213D01*
X178180443Y-99910000D01*
X177859556Y-99910000D01*
X177541242Y-99950213D01*
X177541233Y-99950215D01*
X177230444Y-100030012D01*
X176932124Y-100148124D01*
X176932116Y-100148128D01*
X176650946Y-100302702D01*
X176650928Y-100302714D01*
X176399176Y-100485622D01*
X176399175Y-100485623D01*
X177258281Y-101344729D01*
X177140534Y-101430278D01*
X176990278Y-101580534D01*
X176904729Y-101698282D01*
X176048773Y-100842326D01*
X175952924Y-100958188D01*
X175781001Y-101229096D01*
X175780998Y-101229102D01*
X175644384Y-101519419D01*
X175644382Y-101519424D01*
X175545230Y-101824582D01*
X175485104Y-102139771D01*
X175485103Y-102139778D01*
X175464958Y-102459994D01*
X171090243Y-102459994D01*
X171199034Y-102228803D01*
X171199036Y-102228798D01*
X171296244Y-101929624D01*
X171355191Y-101620615D01*
X171355192Y-101620608D01*
X171374943Y-101306671D01*
X171374943Y-101306660D01*
X171355192Y-100992723D01*
X171355191Y-100992716D01*
X171296244Y-100683707D01*
X171199036Y-100384533D01*
X171199034Y-100384528D01*
X171065099Y-100099904D01*
X171065096Y-100099898D01*
X170896544Y-99834301D01*
X170715326Y-99615246D01*
X170687761Y-99551043D01*
X170699282Y-99482130D01*
X170746231Y-99430385D01*
X170813703Y-99412237D01*
X170828190Y-99413421D01*
X170959693Y-99431992D01*
X185575415Y-99395360D01*
X185642502Y-99414877D01*
G37*
%TD.AperFunction*%
%TD*%
%TA.AperFunction,Conductor*%
%TO.N,/+*%
G36*
X185130333Y-90928370D02*
G01*
X185137633Y-90933438D01*
X185140397Y-90935508D01*
X185141387Y-90936249D01*
X185183246Y-90992192D01*
X185188215Y-91061884D01*
X185154717Y-91123200D01*
X185093387Y-91156672D01*
X185067055Y-91159500D01*
X182972129Y-91159500D01*
X182972123Y-91159501D01*
X182912516Y-91165908D01*
X182777671Y-91216202D01*
X182777664Y-91216206D01*
X182662455Y-91302452D01*
X182662452Y-91302455D01*
X182576206Y-91417664D01*
X182576202Y-91417671D01*
X182525908Y-91552517D01*
X182519501Y-91612116D01*
X182519500Y-91612135D01*
X182519500Y-92607870D01*
X182519501Y-92607876D01*
X182525908Y-92667483D01*
X182576202Y-92802328D01*
X182576206Y-92802335D01*
X182662452Y-92917544D01*
X182662455Y-92917547D01*
X182777664Y-93003793D01*
X182777671Y-93003797D01*
X182912517Y-93054091D01*
X182912516Y-93054091D01*
X182919444Y-93054835D01*
X182972127Y-93060500D01*
X185067872Y-93060499D01*
X185127483Y-93054091D01*
X185262331Y-93003796D01*
X185377546Y-92917546D01*
X185463796Y-92802331D01*
X185463797Y-92802326D01*
X185466892Y-92796661D01*
X185516298Y-92747256D01*
X185584571Y-92732405D01*
X185650035Y-92756822D01*
X185691906Y-92812756D01*
X185699724Y-92856089D01*
X185699724Y-98765858D01*
X185680039Y-98832897D01*
X185627235Y-98878652D01*
X185576035Y-98889858D01*
X170958426Y-98926494D01*
X170891337Y-98906977D01*
X170845450Y-98854288D01*
X170835333Y-98785155D01*
X170864199Y-98721526D01*
X170914783Y-98686312D01*
X171012084Y-98650021D01*
X171012093Y-98650016D01*
X171127187Y-98563856D01*
X171127190Y-98563853D01*
X171213350Y-98448759D01*
X171213354Y-98448752D01*
X171263596Y-98314045D01*
X171263598Y-98314038D01*
X171269999Y-98254510D01*
X171270000Y-98254493D01*
X171270000Y-96556666D01*
X170197231Y-96556666D01*
X170220000Y-96412913D01*
X170220000Y-96200419D01*
X170197231Y-96056666D01*
X171270000Y-96056666D01*
X171270000Y-94358838D01*
X171269999Y-94358821D01*
X171263598Y-94299293D01*
X171263596Y-94299286D01*
X171213411Y-94164731D01*
X175470000Y-94164731D01*
X175470000Y-95010000D01*
X176692769Y-95010000D01*
X176670000Y-95153753D01*
X176670000Y-95366247D01*
X176692769Y-95510000D01*
X175470000Y-95510000D01*
X175470000Y-96355268D01*
X175480215Y-96499958D01*
X175480217Y-96499968D01*
X175534313Y-96740165D01*
X175534315Y-96740172D01*
X175626244Y-96968585D01*
X175753620Y-97179289D01*
X175753627Y-97179299D01*
X175913153Y-97366846D01*
X176100700Y-97526372D01*
X176100710Y-97526379D01*
X176311414Y-97653755D01*
X176539827Y-97745684D01*
X176539834Y-97745686D01*
X176780031Y-97799782D01*
X176780041Y-97799784D01*
X176924731Y-97809999D01*
X176924734Y-97810000D01*
X177770000Y-97810000D01*
X177770000Y-96587231D01*
X177913753Y-96610000D01*
X178126247Y-96610000D01*
X178270000Y-96587231D01*
X178270000Y-97810000D01*
X179115266Y-97810000D01*
X179115268Y-97809999D01*
X179259958Y-97799784D01*
X179259968Y-97799782D01*
X179500165Y-97745686D01*
X179500172Y-97745684D01*
X179728585Y-97653755D01*
X179939289Y-97526379D01*
X179939299Y-97526372D01*
X180126846Y-97366846D01*
X180286372Y-97179299D01*
X180286379Y-97179289D01*
X180413755Y-96968585D01*
X180505684Y-96740172D01*
X180505686Y-96740165D01*
X180559782Y-96499968D01*
X180559784Y-96499958D01*
X180569999Y-96355268D01*
X180570000Y-96355266D01*
X180570000Y-95510000D01*
X179347231Y-95510000D01*
X179370000Y-95366247D01*
X179370000Y-95153753D01*
X179347231Y-95010000D01*
X180570000Y-95010000D01*
X180570000Y-94164734D01*
X180569999Y-94164731D01*
X180559784Y-94020041D01*
X180559782Y-94020031D01*
X180505686Y-93779834D01*
X180505684Y-93779827D01*
X180413755Y-93551414D01*
X180286379Y-93340710D01*
X180286372Y-93340700D01*
X180126846Y-93153153D01*
X179939299Y-92993627D01*
X179939289Y-92993620D01*
X179728585Y-92866244D01*
X179500172Y-92774315D01*
X179500165Y-92774313D01*
X179259968Y-92720217D01*
X179259958Y-92720215D01*
X179115268Y-92710000D01*
X178270000Y-92710000D01*
X178270000Y-93932768D01*
X178126247Y-93910000D01*
X177913753Y-93910000D01*
X177770000Y-93932768D01*
X177770000Y-92710000D01*
X176924731Y-92710000D01*
X176780041Y-92720215D01*
X176780031Y-92720217D01*
X176539834Y-92774313D01*
X176539827Y-92774315D01*
X176311414Y-92866244D01*
X176100710Y-92993620D01*
X176100700Y-92993627D01*
X175913153Y-93153153D01*
X175753627Y-93340700D01*
X175753620Y-93340710D01*
X175626244Y-93551414D01*
X175534315Y-93779827D01*
X175534313Y-93779834D01*
X175480217Y-94020031D01*
X175480215Y-94020041D01*
X175470000Y-94164731D01*
X171213411Y-94164731D01*
X171213354Y-94164579D01*
X171213350Y-94164572D01*
X171127190Y-94049478D01*
X171127187Y-94049475D01*
X171012093Y-93963315D01*
X171012086Y-93963311D01*
X170877379Y-93913069D01*
X170877372Y-93913067D01*
X170817844Y-93906666D01*
X169120000Y-93906666D01*
X169120000Y-94979434D01*
X168976247Y-94956666D01*
X168763753Y-94956666D01*
X168620000Y-94979434D01*
X168620000Y-93906666D01*
X166922155Y-93906666D01*
X166862627Y-93913067D01*
X166862620Y-93913069D01*
X166727913Y-93963311D01*
X166727906Y-93963315D01*
X166612812Y-94049475D01*
X166612809Y-94049478D01*
X166526649Y-94164572D01*
X166526645Y-94164579D01*
X166476403Y-94299286D01*
X166476401Y-94299293D01*
X166470000Y-94358821D01*
X166470000Y-96056666D01*
X167542769Y-96056666D01*
X167520000Y-96200419D01*
X167520000Y-96412913D01*
X167542769Y-96556666D01*
X166470000Y-96556666D01*
X166470000Y-98254510D01*
X166476401Y-98314038D01*
X166476403Y-98314045D01*
X166526645Y-98448752D01*
X166526649Y-98448759D01*
X166612809Y-98563853D01*
X166612812Y-98563856D01*
X166727906Y-98650016D01*
X166727913Y-98650020D01*
X166853094Y-98696709D01*
X166909027Y-98738580D01*
X166933445Y-98804044D01*
X166918594Y-98872317D01*
X166869189Y-98921723D01*
X166810072Y-98936891D01*
X160921012Y-98951651D01*
X160853923Y-98932134D01*
X160808036Y-98879445D01*
X160797919Y-98810312D01*
X160826785Y-98746683D01*
X160885468Y-98708762D01*
X160892199Y-98706971D01*
X160892383Y-98706927D01*
X161027086Y-98656686D01*
X161027093Y-98656682D01*
X161142187Y-98570522D01*
X161142190Y-98570519D01*
X161228350Y-98455425D01*
X161228354Y-98455418D01*
X161278596Y-98320711D01*
X161278598Y-98320704D01*
X161284999Y-98261176D01*
X161285000Y-98261159D01*
X161285000Y-96563332D01*
X160212231Y-96563332D01*
X160235000Y-96419579D01*
X160235000Y-96207085D01*
X160212231Y-96063332D01*
X161285000Y-96063332D01*
X161285000Y-94365504D01*
X161284999Y-94365487D01*
X161278598Y-94305959D01*
X161278596Y-94305952D01*
X161228354Y-94171245D01*
X161228350Y-94171238D01*
X161142190Y-94056144D01*
X161142187Y-94056141D01*
X161027093Y-93969981D01*
X161027086Y-93969977D01*
X160892379Y-93919735D01*
X160892372Y-93919733D01*
X160832844Y-93913332D01*
X159135000Y-93913332D01*
X159135000Y-94986100D01*
X158991247Y-94963332D01*
X158778753Y-94963332D01*
X158635000Y-94986100D01*
X158635000Y-93913332D01*
X156937155Y-93913332D01*
X156877627Y-93919733D01*
X156877620Y-93919735D01*
X156742913Y-93969977D01*
X156742906Y-93969981D01*
X156627812Y-94056141D01*
X156627809Y-94056144D01*
X156541649Y-94171238D01*
X156541645Y-94171245D01*
X156491403Y-94305952D01*
X156491401Y-94305959D01*
X156485000Y-94365487D01*
X156485000Y-96063332D01*
X157557769Y-96063332D01*
X157535000Y-96207085D01*
X157535000Y-96419579D01*
X157557769Y-96563332D01*
X156485000Y-96563332D01*
X156485000Y-98261176D01*
X156491401Y-98320704D01*
X156491403Y-98320711D01*
X156541645Y-98455418D01*
X156541649Y-98455425D01*
X156627809Y-98570519D01*
X156627812Y-98570522D01*
X156742906Y-98656682D01*
X156742913Y-98656686D01*
X156877620Y-98706928D01*
X156877627Y-98706930D01*
X156937155Y-98713331D01*
X156937172Y-98713332D01*
X157058110Y-98713332D01*
X157125149Y-98733017D01*
X157170904Y-98785821D01*
X157180848Y-98854979D01*
X157151823Y-98918535D01*
X157093045Y-98956309D01*
X157058421Y-98961332D01*
X149855299Y-98979385D01*
X149809341Y-98970677D01*
X149730070Y-98939291D01*
X149674986Y-98896311D01*
X149651883Y-98830372D01*
X149668097Y-98762409D01*
X149718480Y-98714001D01*
X149775719Y-98700000D01*
X150847828Y-98700000D01*
X150847844Y-98699999D01*
X150907372Y-98693598D01*
X150907379Y-98693596D01*
X151042086Y-98643354D01*
X151042093Y-98643350D01*
X151157187Y-98557190D01*
X151157190Y-98557187D01*
X151243350Y-98442093D01*
X151243354Y-98442086D01*
X151293596Y-98307379D01*
X151293598Y-98307372D01*
X151299999Y-98247844D01*
X151300000Y-98247827D01*
X151300000Y-96550000D01*
X150227231Y-96550000D01*
X150250000Y-96406247D01*
X150250000Y-96193753D01*
X150227231Y-96050000D01*
X151300000Y-96050000D01*
X151300000Y-94352172D01*
X151299999Y-94352155D01*
X151293598Y-94292627D01*
X151293596Y-94292620D01*
X151243354Y-94157913D01*
X151243350Y-94157906D01*
X151157190Y-94042812D01*
X151157187Y-94042809D01*
X151042093Y-93956649D01*
X151042086Y-93956645D01*
X150907379Y-93906403D01*
X150907372Y-93906401D01*
X150847844Y-93900000D01*
X149150000Y-93900000D01*
X149150000Y-94972768D01*
X149006247Y-94950000D01*
X148793753Y-94950000D01*
X148650000Y-94972768D01*
X148650000Y-93900000D01*
X146952155Y-93900000D01*
X146892627Y-93906401D01*
X146892620Y-93906403D01*
X146757913Y-93956645D01*
X146757906Y-93956649D01*
X146642812Y-94042809D01*
X146642809Y-94042812D01*
X146556649Y-94157906D01*
X146556645Y-94157913D01*
X146506403Y-94292620D01*
X146506401Y-94292627D01*
X146500000Y-94352155D01*
X146500000Y-96050000D01*
X147572769Y-96050000D01*
X147550000Y-96193753D01*
X147550000Y-96406247D01*
X147572769Y-96550000D01*
X146500000Y-96550000D01*
X146500000Y-98247844D01*
X146506401Y-98307372D01*
X146506403Y-98307379D01*
X146556645Y-98442086D01*
X146556649Y-98442093D01*
X146642809Y-98557187D01*
X146642812Y-98557190D01*
X146757906Y-98643350D01*
X146757913Y-98643354D01*
X146892620Y-98693596D01*
X146892627Y-98693598D01*
X146952155Y-98699999D01*
X146952172Y-98700000D01*
X148024279Y-98700000D01*
X148091318Y-98719685D01*
X148137073Y-98772489D01*
X148147017Y-98841647D01*
X148117992Y-98905203D01*
X148069924Y-98939293D01*
X147978486Y-98975494D01*
X147933152Y-98984201D01*
X131824587Y-99024574D01*
X131757498Y-99005057D01*
X131711611Y-98952368D01*
X131700276Y-98900574D01*
X131700276Y-94254731D01*
X137300000Y-94254731D01*
X137300000Y-95100000D01*
X138522769Y-95100000D01*
X138500000Y-95243753D01*
X138500000Y-95456247D01*
X138522769Y-95600000D01*
X137300000Y-95600000D01*
X137300000Y-96445268D01*
X137310215Y-96589958D01*
X137310217Y-96589968D01*
X137364313Y-96830165D01*
X137364315Y-96830172D01*
X137456244Y-97058585D01*
X137583620Y-97269289D01*
X137583627Y-97269299D01*
X137743153Y-97456846D01*
X137930700Y-97616372D01*
X137930710Y-97616379D01*
X138141414Y-97743755D01*
X138369827Y-97835684D01*
X138369834Y-97835686D01*
X138610031Y-97889782D01*
X138610041Y-97889784D01*
X138754731Y-97899999D01*
X138754734Y-97900000D01*
X139600000Y-97900000D01*
X139600000Y-96677231D01*
X139743753Y-96700000D01*
X139956247Y-96700000D01*
X140100000Y-96677231D01*
X140100000Y-97900000D01*
X140945266Y-97900000D01*
X140945268Y-97899999D01*
X141089958Y-97889784D01*
X141089968Y-97889782D01*
X141330165Y-97835686D01*
X141330172Y-97835684D01*
X141558585Y-97743755D01*
X141769289Y-97616379D01*
X141769299Y-97616372D01*
X141956846Y-97456846D01*
X142116372Y-97269299D01*
X142116379Y-97269289D01*
X142243755Y-97058585D01*
X142335684Y-96830172D01*
X142335686Y-96830165D01*
X142389782Y-96589968D01*
X142389784Y-96589958D01*
X142399999Y-96445268D01*
X142400000Y-96445266D01*
X142400000Y-95600000D01*
X141177231Y-95600000D01*
X141200000Y-95456247D01*
X141200000Y-95243753D01*
X141177231Y-95100000D01*
X142400000Y-95100000D01*
X142400000Y-94254734D01*
X142399999Y-94254731D01*
X142389784Y-94110041D01*
X142389782Y-94110031D01*
X142335686Y-93869834D01*
X142335684Y-93869827D01*
X142243755Y-93641414D01*
X142116379Y-93430710D01*
X142116372Y-93430700D01*
X141956846Y-93243153D01*
X141769299Y-93083627D01*
X141769289Y-93083620D01*
X141558585Y-92956244D01*
X141330172Y-92864315D01*
X141330165Y-92864313D01*
X141089968Y-92810217D01*
X141089958Y-92810215D01*
X140945268Y-92800000D01*
X140100000Y-92800000D01*
X140100000Y-94022768D01*
X139956247Y-94000000D01*
X139743753Y-94000000D01*
X139600000Y-94022768D01*
X139600000Y-92800000D01*
X138754731Y-92800000D01*
X138610041Y-92810215D01*
X138610031Y-92810217D01*
X138369834Y-92864313D01*
X138369827Y-92864315D01*
X138141414Y-92956244D01*
X137930710Y-93083620D01*
X137930700Y-93083627D01*
X137743153Y-93243153D01*
X137583627Y-93430700D01*
X137583620Y-93430710D01*
X137456244Y-93641414D01*
X137364315Y-93869827D01*
X137364313Y-93869834D01*
X137310217Y-94110031D01*
X137310215Y-94110041D01*
X137300000Y-94254731D01*
X131700276Y-94254731D01*
X131700276Y-92166113D01*
X131700277Y-92166110D01*
X131700276Y-92104643D01*
X131700592Y-92095798D01*
X131714906Y-91895633D01*
X131717423Y-91878122D01*
X131755704Y-91702135D01*
X132349500Y-91702135D01*
X132349500Y-92697870D01*
X132349501Y-92697876D01*
X132355908Y-92757483D01*
X132406202Y-92892328D01*
X132406206Y-92892335D01*
X132492452Y-93007544D01*
X132492455Y-93007547D01*
X132607664Y-93093793D01*
X132607671Y-93093797D01*
X132742517Y-93144091D01*
X132742516Y-93144091D01*
X132749444Y-93144835D01*
X132802127Y-93150500D01*
X134897872Y-93150499D01*
X134957483Y-93144091D01*
X135092331Y-93093796D01*
X135207546Y-93007546D01*
X135293796Y-92892331D01*
X135344091Y-92757483D01*
X135350500Y-92697873D01*
X135350499Y-91702128D01*
X135344091Y-91642517D01*
X135332759Y-91612135D01*
X135293797Y-91507671D01*
X135293793Y-91507664D01*
X135207547Y-91392455D01*
X135207544Y-91392452D01*
X135092335Y-91306206D01*
X135092328Y-91306202D01*
X134957482Y-91255908D01*
X134957483Y-91255908D01*
X134897883Y-91249501D01*
X134897881Y-91249500D01*
X134897873Y-91249500D01*
X134897864Y-91249500D01*
X132802129Y-91249500D01*
X132802123Y-91249501D01*
X132742516Y-91255908D01*
X132607671Y-91306202D01*
X132607664Y-91306206D01*
X132492455Y-91392452D01*
X132492452Y-91392455D01*
X132406206Y-91507664D01*
X132406202Y-91507671D01*
X132355908Y-91642517D01*
X132349501Y-91702116D01*
X132349501Y-91702123D01*
X132349500Y-91702135D01*
X131755704Y-91702135D01*
X131759138Y-91686348D01*
X131764117Y-91669390D01*
X131832701Y-91485506D01*
X131840048Y-91469421D01*
X131934096Y-91297183D01*
X131943660Y-91282300D01*
X132061263Y-91125197D01*
X132072843Y-91111831D01*
X132211622Y-90973050D01*
X132224974Y-90961481D01*
X132245501Y-90946114D01*
X132310962Y-90921698D01*
X132319757Y-90921382D01*
X185063293Y-90908703D01*
X185130333Y-90928370D01*
G37*
%TD.AperFunction*%
%TD*%
%TA.AperFunction,Conductor*%
%TO.N,GND*%
G36*
X154462539Y-113235185D02*
G01*
X154508294Y-113287989D01*
X154519500Y-113339500D01*
X154519500Y-114665001D01*
X154519501Y-114665018D01*
X154530000Y-114767796D01*
X154530001Y-114767799D01*
X154575894Y-114906294D01*
X154585186Y-114934334D01*
X154677288Y-115083656D01*
X154801344Y-115207712D01*
X154950666Y-115299814D01*
X155056172Y-115334775D01*
X155113617Y-115374548D01*
X155140440Y-115439064D01*
X155141168Y-115452481D01*
X155141168Y-122219243D01*
X155121483Y-122286282D01*
X155068679Y-122332037D01*
X154999521Y-122341981D01*
X154935965Y-122312956D01*
X154898191Y-122254178D01*
X154896858Y-122249181D01*
X154831095Y-122046782D01*
X154734620Y-121857442D01*
X154609727Y-121685540D01*
X154609723Y-121685535D01*
X154459464Y-121535276D01*
X154459459Y-121535272D01*
X154287557Y-121410379D01*
X154098215Y-121313903D01*
X153896124Y-121248241D01*
X153830000Y-121237768D01*
X153830000Y-122285854D01*
X153763343Y-122247370D01*
X153642535Y-122215000D01*
X153517465Y-122215000D01*
X153396657Y-122247370D01*
X153330000Y-122285854D01*
X153330000Y-121237768D01*
X153329999Y-121237768D01*
X153263875Y-121248241D01*
X153061784Y-121313903D01*
X152872442Y-121410379D01*
X152700540Y-121535272D01*
X152700535Y-121535276D01*
X152550276Y-121685535D01*
X152550272Y-121685540D01*
X152430627Y-121850218D01*
X152375297Y-121892884D01*
X152305684Y-121898863D01*
X152243889Y-121866257D01*
X152229991Y-121850218D01*
X152110109Y-121685214D01*
X152110105Y-121685209D01*
X151959786Y-121534890D01*
X151787820Y-121409951D01*
X151598414Y-121313444D01*
X151598413Y-121313443D01*
X151598412Y-121313443D01*
X151396243Y-121247754D01*
X151396241Y-121247753D01*
X151396240Y-121247753D01*
X151234957Y-121222208D01*
X151186287Y-121214500D01*
X150973713Y-121214500D01*
X150934202Y-121220757D01*
X150763759Y-121247753D01*
X150561588Y-121313442D01*
X150557090Y-121315306D01*
X150556381Y-121313595D01*
X150495462Y-121325006D01*
X150430734Y-121298698D01*
X150420215Y-121289312D01*
X150368487Y-121237584D01*
X150335002Y-121176261D01*
X150332168Y-121149903D01*
X150332168Y-115355916D01*
X150351853Y-115288877D01*
X150399874Y-115245431D01*
X150547816Y-115170051D01*
X150666728Y-115083657D01*
X150719786Y-115045109D01*
X150719788Y-115045106D01*
X150719792Y-115045104D01*
X150870104Y-114894792D01*
X150870106Y-114894788D01*
X150870109Y-114894786D01*
X150995048Y-114722820D01*
X150995047Y-114722820D01*
X150995051Y-114722816D01*
X151091557Y-114533412D01*
X151157246Y-114331243D01*
X151190500Y-114121287D01*
X151190500Y-113658713D01*
X151157246Y-113448757D01*
X151147594Y-113419054D01*
X151145600Y-113349216D01*
X151177847Y-113293055D01*
X151219087Y-113251817D01*
X151280411Y-113218333D01*
X151306766Y-113215500D01*
X154395500Y-113215500D01*
X154462539Y-113235185D01*
G37*
%TD.AperFunction*%
%TA.AperFunction,Conductor*%
G36*
X185642763Y-108519685D02*
G01*
X185688518Y-108572489D01*
X185699724Y-108624000D01*
X185699724Y-133026279D01*
X185699723Y-133026297D01*
X185699723Y-133095356D01*
X185699407Y-133104201D01*
X185685093Y-133304366D01*
X185682576Y-133321877D01*
X185640863Y-133513643D01*
X185635878Y-133530620D01*
X185567301Y-133714485D01*
X185559951Y-133730578D01*
X185465903Y-133902816D01*
X185456339Y-133917699D01*
X185338736Y-134074802D01*
X185327150Y-134088174D01*
X185188387Y-134226939D01*
X185175016Y-134238525D01*
X185017915Y-134356131D01*
X185003031Y-134365696D01*
X184830798Y-134459743D01*
X184814705Y-134467093D01*
X184630829Y-134535676D01*
X184613853Y-134540660D01*
X184422101Y-134582373D01*
X184404589Y-134584891D01*
X184204754Y-134599184D01*
X184195908Y-134599500D01*
X184127698Y-134599500D01*
X184124280Y-134599724D01*
X133273720Y-134599724D01*
X133273704Y-134599723D01*
X133204643Y-134599723D01*
X133195798Y-134599407D01*
X132995633Y-134585093D01*
X132978122Y-134582576D01*
X132786356Y-134540863D01*
X132769379Y-134535878D01*
X132585514Y-134467301D01*
X132569421Y-134459951D01*
X132397183Y-134365903D01*
X132382300Y-134356339D01*
X132225197Y-134238736D01*
X132211825Y-134227150D01*
X132073060Y-134088387D01*
X132061474Y-134075016D01*
X131943868Y-133917915D01*
X131934303Y-133903031D01*
X131840256Y-133730798D01*
X131832909Y-133714712D01*
X131764320Y-133530820D01*
X131759341Y-133513862D01*
X131717625Y-133322098D01*
X131715108Y-133304589D01*
X131711294Y-133251267D01*
X131700816Y-133104753D01*
X131700500Y-133095907D01*
X131700500Y-133027698D01*
X131700276Y-133024279D01*
X131700276Y-129091577D01*
X148179500Y-129091577D01*
X148179500Y-129288422D01*
X148210290Y-129482826D01*
X148271117Y-129670029D01*
X148360476Y-129845405D01*
X148476172Y-130004646D01*
X148615354Y-130143828D01*
X148774595Y-130259524D01*
X148857455Y-130301743D01*
X148949970Y-130348882D01*
X148949972Y-130348882D01*
X148949975Y-130348884D01*
X149050317Y-130381487D01*
X149137173Y-130409709D01*
X149331578Y-130440500D01*
X149331583Y-130440500D01*
X150328422Y-130440500D01*
X150522826Y-130409709D01*
X150710025Y-130348884D01*
X150885405Y-130259524D01*
X151044646Y-130143828D01*
X151183828Y-130004646D01*
X151299524Y-129845405D01*
X151388884Y-129670025D01*
X151449709Y-129482826D01*
X151480500Y-129288422D01*
X151480500Y-129091577D01*
X162739500Y-129091577D01*
X162739500Y-129288422D01*
X162770290Y-129482826D01*
X162831117Y-129670029D01*
X162920476Y-129845405D01*
X163036172Y-130004646D01*
X163175354Y-130143828D01*
X163334595Y-130259524D01*
X163417455Y-130301743D01*
X163509970Y-130348882D01*
X163509972Y-130348882D01*
X163509975Y-130348884D01*
X163610317Y-130381487D01*
X163697173Y-130409709D01*
X163891578Y-130440500D01*
X163891583Y-130440500D01*
X164888422Y-130440500D01*
X165082826Y-130409709D01*
X165270025Y-130348884D01*
X165445405Y-130259524D01*
X165604646Y-130143828D01*
X165743828Y-130004646D01*
X165859524Y-129845405D01*
X165948884Y-129670025D01*
X166009709Y-129482826D01*
X166040500Y-129288422D01*
X166040500Y-129091577D01*
X166009709Y-128897173D01*
X165948882Y-128709970D01*
X165859523Y-128534594D01*
X165743828Y-128375354D01*
X165604646Y-128236172D01*
X165445405Y-128120476D01*
X165270029Y-128031117D01*
X165082826Y-127970290D01*
X164888422Y-127939500D01*
X164888417Y-127939500D01*
X163891583Y-127939500D01*
X163891578Y-127939500D01*
X163697173Y-127970290D01*
X163509970Y-128031117D01*
X163334594Y-128120476D01*
X163243741Y-128186485D01*
X163175354Y-128236172D01*
X163175352Y-128236174D01*
X163175351Y-128236174D01*
X163036174Y-128375351D01*
X163036174Y-128375352D01*
X163036172Y-128375354D01*
X162986485Y-128443741D01*
X162920476Y-128534594D01*
X162831117Y-128709970D01*
X162770290Y-128897173D01*
X162739500Y-129091577D01*
X151480500Y-129091577D01*
X151449709Y-128897173D01*
X151388882Y-128709970D01*
X151299523Y-128534594D01*
X151183828Y-128375354D01*
X151044646Y-128236172D01*
X150885405Y-128120476D01*
X150710029Y-128031117D01*
X150522826Y-127970290D01*
X150328422Y-127939500D01*
X150328417Y-127939500D01*
X149331583Y-127939500D01*
X149331578Y-127939500D01*
X149137173Y-127970290D01*
X148949970Y-128031117D01*
X148774594Y-128120476D01*
X148683741Y-128186485D01*
X148615354Y-128236172D01*
X148615352Y-128236174D01*
X148615351Y-128236174D01*
X148476174Y-128375351D01*
X148476174Y-128375352D01*
X148476172Y-128375354D01*
X148426485Y-128443741D01*
X148360476Y-128534594D01*
X148271117Y-128709970D01*
X148210290Y-128897173D01*
X148179500Y-129091577D01*
X131700276Y-129091577D01*
X131700276Y-121914983D01*
X144729500Y-121914983D01*
X144729500Y-123465001D01*
X144729501Y-123465018D01*
X144740000Y-123567796D01*
X144740001Y-123567799D01*
X144785894Y-123706294D01*
X144795186Y-123734334D01*
X144887288Y-123883656D01*
X145011344Y-124007712D01*
X145160666Y-124099814D01*
X145327203Y-124154999D01*
X145429991Y-124165500D01*
X146730008Y-124165499D01*
X146832797Y-124154999D01*
X146999334Y-124099814D01*
X147148656Y-124007712D01*
X147272712Y-123883656D01*
X147364814Y-123734334D01*
X147364814Y-123734331D01*
X147368178Y-123728879D01*
X147420126Y-123682154D01*
X147489088Y-123670931D01*
X147553170Y-123698774D01*
X147561398Y-123706294D01*
X147700213Y-123845109D01*
X147872179Y-123970048D01*
X147872181Y-123970049D01*
X147872184Y-123970051D01*
X148061588Y-124066557D01*
X148263757Y-124132246D01*
X148473713Y-124165500D01*
X148473714Y-124165500D01*
X148686286Y-124165500D01*
X148686287Y-124165500D01*
X148896243Y-124132246D01*
X148951105Y-124114419D01*
X149020945Y-124112425D01*
X149077103Y-124144670D01*
X149261807Y-124329374D01*
X149261817Y-124329385D01*
X149266147Y-124333715D01*
X149266148Y-124333716D01*
X149377952Y-124445520D01*
X149464763Y-124495639D01*
X149464765Y-124495641D01*
X149514881Y-124524576D01*
X149514883Y-124524577D01*
X149667610Y-124565500D01*
X149667611Y-124565500D01*
X154239999Y-124565500D01*
X154240015Y-124565501D01*
X154247611Y-124565501D01*
X154405722Y-124565501D01*
X154405725Y-124565501D01*
X154558453Y-124524577D01*
X154608572Y-124495639D01*
X154695384Y-124445520D01*
X154807188Y-124333716D01*
X154807188Y-124333714D01*
X154817396Y-124323507D01*
X154817397Y-124323504D01*
X156222187Y-122918716D01*
X156280746Y-122860157D01*
X156280758Y-122860143D01*
X159114085Y-120026819D01*
X159175408Y-119993334D01*
X159201766Y-119990500D01*
X161781571Y-119990500D01*
X161848610Y-120010185D01*
X161869252Y-120026819D01*
X162394849Y-120552416D01*
X162428334Y-120613739D01*
X162431168Y-120640097D01*
X162431168Y-121347505D01*
X162411483Y-121414544D01*
X162380053Y-121447823D01*
X162260215Y-121534889D01*
X162121398Y-121673706D01*
X162060075Y-121707190D01*
X161990383Y-121702206D01*
X161934450Y-121660334D01*
X161928178Y-121651120D01*
X161832712Y-121496344D01*
X161708657Y-121372289D01*
X161708656Y-121372288D01*
X161573721Y-121289060D01*
X161559336Y-121280187D01*
X161559331Y-121280185D01*
X161554958Y-121278736D01*
X161392797Y-121225001D01*
X161392795Y-121225000D01*
X161290010Y-121214500D01*
X159989998Y-121214500D01*
X159989981Y-121214501D01*
X159887203Y-121225000D01*
X159887200Y-121225001D01*
X159720668Y-121280185D01*
X159720663Y-121280187D01*
X159571342Y-121372289D01*
X159447289Y-121496342D01*
X159355187Y-121645663D01*
X159355185Y-121645668D01*
X159350325Y-121660334D01*
X159300001Y-121812203D01*
X159300001Y-121812204D01*
X159300000Y-121812204D01*
X159289500Y-121914983D01*
X159289500Y-123465001D01*
X159289501Y-123465018D01*
X159300000Y-123567796D01*
X159300001Y-123567799D01*
X159345894Y-123706294D01*
X159355186Y-123734334D01*
X159447288Y-123883656D01*
X159571344Y-124007712D01*
X159720666Y-124099814D01*
X159887203Y-124154999D01*
X159989991Y-124165500D01*
X161290008Y-124165499D01*
X161392797Y-124154999D01*
X161559334Y-124099814D01*
X161708656Y-124007712D01*
X161832712Y-123883656D01*
X161924814Y-123734334D01*
X161924814Y-123734331D01*
X161928178Y-123728879D01*
X161980126Y-123682154D01*
X162049088Y-123670931D01*
X162113170Y-123698774D01*
X162121398Y-123706294D01*
X162260213Y-123845109D01*
X162432179Y-123970048D01*
X162432181Y-123970049D01*
X162432184Y-123970051D01*
X162621588Y-124066557D01*
X162823757Y-124132246D01*
X163033713Y-124165500D01*
X163033714Y-124165500D01*
X163246286Y-124165500D01*
X163246287Y-124165500D01*
X163456243Y-124132246D01*
X163658412Y-124066557D01*
X163847816Y-123970051D01*
X163869789Y-123954086D01*
X164019786Y-123845109D01*
X164019788Y-123845106D01*
X164019792Y-123845104D01*
X164170104Y-123694792D01*
X164289683Y-123530204D01*
X164345011Y-123487540D01*
X164414624Y-123481561D01*
X164476420Y-123514166D01*
X164490313Y-123530199D01*
X164592560Y-123670931D01*
X164609896Y-123694792D01*
X164760213Y-123845109D01*
X164932179Y-123970048D01*
X164932181Y-123970049D01*
X164932184Y-123970051D01*
X165121588Y-124066557D01*
X165323757Y-124132246D01*
X165533713Y-124165500D01*
X165533714Y-124165500D01*
X165746286Y-124165500D01*
X165746287Y-124165500D01*
X165956243Y-124132246D01*
X166158412Y-124066557D01*
X166347816Y-123970051D01*
X166369789Y-123954086D01*
X166519786Y-123845109D01*
X166519788Y-123845106D01*
X166519792Y-123845104D01*
X166670104Y-123694792D01*
X166789991Y-123529779D01*
X166845320Y-123487115D01*
X166914933Y-123481136D01*
X166976729Y-123513741D01*
X166990627Y-123529781D01*
X167110272Y-123694459D01*
X167110276Y-123694464D01*
X167260535Y-123844723D01*
X167260540Y-123844727D01*
X167432442Y-123969620D01*
X167621782Y-124066095D01*
X167823871Y-124131757D01*
X167890000Y-124142231D01*
X167890000Y-123094145D01*
X167956657Y-123132630D01*
X168077465Y-123165000D01*
X168202535Y-123165000D01*
X168323343Y-123132630D01*
X168390000Y-123094145D01*
X168390000Y-124142230D01*
X168456126Y-124131757D01*
X168456129Y-124131757D01*
X168658217Y-124066095D01*
X168847557Y-123969620D01*
X169019459Y-123844727D01*
X169019464Y-123844723D01*
X169169723Y-123694464D01*
X169169727Y-123694459D01*
X169294620Y-123522557D01*
X169391095Y-123333217D01*
X169456757Y-123131130D01*
X169456757Y-123131127D01*
X169487030Y-122940000D01*
X168544146Y-122940000D01*
X168582630Y-122873343D01*
X168615000Y-122752535D01*
X168615000Y-122627465D01*
X168582630Y-122506657D01*
X168544146Y-122440000D01*
X169487030Y-122440000D01*
X169456757Y-122248872D01*
X169456757Y-122248869D01*
X169391095Y-122046782D01*
X169294620Y-121857442D01*
X169169727Y-121685540D01*
X169169723Y-121685535D01*
X169019464Y-121535276D01*
X169019459Y-121535272D01*
X168847557Y-121410379D01*
X168658215Y-121313903D01*
X168456124Y-121248241D01*
X168390000Y-121237768D01*
X168390000Y-122285854D01*
X168323343Y-122247370D01*
X168202535Y-122215000D01*
X168077465Y-122215000D01*
X167956657Y-122247370D01*
X167890000Y-122285854D01*
X167890000Y-121237768D01*
X167889999Y-121237768D01*
X167823875Y-121248241D01*
X167621783Y-121313903D01*
X167621779Y-121313905D01*
X167552462Y-121349224D01*
X167483793Y-121362120D01*
X167419053Y-121335843D01*
X167378796Y-121278736D01*
X167372168Y-121238739D01*
X167372168Y-115355916D01*
X167391853Y-115288877D01*
X167439874Y-115245431D01*
X167587816Y-115170051D01*
X167706728Y-115083657D01*
X167759786Y-115045109D01*
X167759788Y-115045106D01*
X167759792Y-115045104D01*
X167910104Y-114894792D01*
X167910106Y-114894788D01*
X167910109Y-114894786D01*
X168035048Y-114722820D01*
X168035047Y-114722820D01*
X168035051Y-114722816D01*
X168131557Y-114533412D01*
X168197246Y-114331243D01*
X168230500Y-114121287D01*
X168230500Y-113658713D01*
X168197246Y-113448757D01*
X168174487Y-113378711D01*
X179409500Y-113378711D01*
X179409500Y-113621288D01*
X179441161Y-113861785D01*
X179503947Y-114096104D01*
X179560059Y-114231570D01*
X179596776Y-114320212D01*
X179718064Y-114530289D01*
X179718066Y-114530292D01*
X179718067Y-114530293D01*
X179865733Y-114722736D01*
X179865739Y-114722743D01*
X180037256Y-114894260D01*
X180037263Y-114894266D01*
X180150321Y-114981018D01*
X180229711Y-115041936D01*
X180439788Y-115163224D01*
X180663900Y-115256054D01*
X180898211Y-115318838D01*
X181078586Y-115342584D01*
X181138711Y-115350500D01*
X181138712Y-115350500D01*
X181381289Y-115350500D01*
X181429388Y-115344167D01*
X181621789Y-115318838D01*
X181856100Y-115256054D01*
X182080212Y-115163224D01*
X182290289Y-115041936D01*
X182482738Y-114894265D01*
X182654265Y-114722738D01*
X182801936Y-114530289D01*
X182923224Y-114320212D01*
X183016054Y-114096100D01*
X183078838Y-113861789D01*
X183110500Y-113621288D01*
X183110500Y-113378712D01*
X183078838Y-113138211D01*
X183016054Y-112903900D01*
X182923224Y-112679788D01*
X182801936Y-112469711D01*
X182654265Y-112277262D01*
X182654260Y-112277256D01*
X182482743Y-112105739D01*
X182482736Y-112105733D01*
X182290293Y-111958067D01*
X182290292Y-111958066D01*
X182290289Y-111958064D01*
X182080212Y-111836776D01*
X182080205Y-111836773D01*
X181856104Y-111743947D01*
X181621785Y-111681161D01*
X181381289Y-111649500D01*
X181381288Y-111649500D01*
X181138712Y-111649500D01*
X181138711Y-111649500D01*
X180898214Y-111681161D01*
X180663895Y-111743947D01*
X180439794Y-111836773D01*
X180439785Y-111836777D01*
X180229706Y-111958067D01*
X180037263Y-112105733D01*
X180037256Y-112105739D01*
X179865739Y-112277256D01*
X179865733Y-112277263D01*
X179718067Y-112469706D01*
X179596777Y-112679785D01*
X179596773Y-112679794D01*
X179503947Y-112903895D01*
X179441161Y-113138214D01*
X179409500Y-113378711D01*
X168174487Y-113378711D01*
X168131557Y-113246588D01*
X168035051Y-113057184D01*
X168035049Y-113057181D01*
X168035048Y-113057179D01*
X167910109Y-112885213D01*
X167759786Y-112734890D01*
X167587820Y-112609951D01*
X167398414Y-112513444D01*
X167398413Y-112513443D01*
X167398412Y-112513443D01*
X167196243Y-112447754D01*
X167196241Y-112447753D01*
X167196240Y-112447753D01*
X167034957Y-112422208D01*
X166986287Y-112414500D01*
X166773713Y-112414500D01*
X166734202Y-112420757D01*
X166563759Y-112447753D01*
X166361588Y-112513442D01*
X166357090Y-112515306D01*
X166356381Y-112513595D01*
X166295462Y-112525006D01*
X166230734Y-112498698D01*
X166220215Y-112489312D01*
X165984258Y-112253355D01*
X165984256Y-112253352D01*
X165865385Y-112134481D01*
X165865384Y-112134480D01*
X165778572Y-112084360D01*
X165778572Y-112084359D01*
X165778568Y-112084358D01*
X165728453Y-112055423D01*
X165575725Y-112014499D01*
X165417611Y-112014499D01*
X165410015Y-112014499D01*
X165409999Y-112014500D01*
X159595725Y-112014500D01*
X159437610Y-112014500D01*
X159284883Y-112055423D01*
X159284882Y-112055423D01*
X159284880Y-112055424D01*
X159284877Y-112055425D01*
X159234764Y-112084359D01*
X159234763Y-112084360D01*
X159197744Y-112105733D01*
X159147953Y-112134479D01*
X159147950Y-112134481D01*
X159036146Y-112246286D01*
X158852007Y-112430424D01*
X158790684Y-112463909D01*
X158726010Y-112460675D01*
X158717189Y-112457809D01*
X158686243Y-112447754D01*
X158686239Y-112447753D01*
X158686238Y-112447753D01*
X158542581Y-112425000D01*
X158476287Y-112414500D01*
X158263713Y-112414500D01*
X158224202Y-112420757D01*
X158053759Y-112447753D01*
X157851588Y-112513442D01*
X157851586Y-112513443D01*
X157840937Y-112518869D01*
X157772268Y-112531763D01*
X157707528Y-112505483D01*
X157696966Y-112496063D01*
X157454258Y-112253355D01*
X157454256Y-112253352D01*
X157335385Y-112134481D01*
X157335384Y-112134480D01*
X157248572Y-112084360D01*
X157248572Y-112084359D01*
X157248568Y-112084358D01*
X157198453Y-112055423D01*
X157045725Y-112014499D01*
X156887611Y-112014499D01*
X156880015Y-112014499D01*
X156879999Y-112014500D01*
X151085725Y-112014500D01*
X150927610Y-112014500D01*
X150774883Y-112055423D01*
X150774882Y-112055423D01*
X150774880Y-112055424D01*
X150774877Y-112055425D01*
X150724764Y-112084359D01*
X150724763Y-112084360D01*
X150687744Y-112105733D01*
X150637953Y-112134479D01*
X150637950Y-112134481D01*
X150526146Y-112246286D01*
X150337103Y-112435328D01*
X150275780Y-112468813D01*
X150211106Y-112465579D01*
X150156242Y-112447753D01*
X149979540Y-112419766D01*
X149946287Y-112414500D01*
X149733713Y-112414500D01*
X149685042Y-112422208D01*
X149523760Y-112447753D01*
X149321585Y-112513444D01*
X149132179Y-112609951D01*
X148960215Y-112734889D01*
X148821398Y-112873706D01*
X148760075Y-112907190D01*
X148690383Y-112902206D01*
X148634450Y-112860334D01*
X148628178Y-112851120D01*
X148532712Y-112696344D01*
X148408657Y-112572289D01*
X148408656Y-112572288D01*
X148273721Y-112489060D01*
X148259336Y-112480187D01*
X148259331Y-112480185D01*
X148257862Y-112479698D01*
X148092797Y-112425001D01*
X148092795Y-112425000D01*
X147990010Y-112414500D01*
X146689998Y-112414500D01*
X146689981Y-112414501D01*
X146587203Y-112425000D01*
X146587200Y-112425001D01*
X146420668Y-112480185D01*
X146420663Y-112480187D01*
X146271342Y-112572289D01*
X146147289Y-112696342D01*
X146055187Y-112845663D01*
X146055185Y-112845668D01*
X146050325Y-112860334D01*
X146000001Y-113012203D01*
X146000001Y-113012204D01*
X146000000Y-113012204D01*
X145989500Y-113114983D01*
X145989500Y-114665001D01*
X145989501Y-114665018D01*
X146000000Y-114767796D01*
X146000001Y-114767799D01*
X146045894Y-114906294D01*
X146055186Y-114934334D01*
X146147288Y-115083656D01*
X146271344Y-115207712D01*
X146420666Y-115299814D01*
X146587203Y-115354999D01*
X146689991Y-115365500D01*
X147696570Y-115365499D01*
X147763609Y-115385183D01*
X147784251Y-115401818D01*
X147834849Y-115452416D01*
X147868334Y-115513739D01*
X147871168Y-115540097D01*
X147871168Y-121347505D01*
X147851483Y-121414544D01*
X147820053Y-121447823D01*
X147700215Y-121534889D01*
X147561398Y-121673706D01*
X147500075Y-121707190D01*
X147430383Y-121702206D01*
X147374450Y-121660334D01*
X147368178Y-121651120D01*
X147272712Y-121496344D01*
X147148657Y-121372289D01*
X147148656Y-121372288D01*
X147013721Y-121289060D01*
X146999336Y-121280187D01*
X146999331Y-121280185D01*
X146994958Y-121278736D01*
X146832797Y-121225001D01*
X146832795Y-121225000D01*
X146730010Y-121214500D01*
X145429998Y-121214500D01*
X145429981Y-121214501D01*
X145327203Y-121225000D01*
X145327200Y-121225001D01*
X145160668Y-121280185D01*
X145160663Y-121280187D01*
X145011342Y-121372289D01*
X144887289Y-121496342D01*
X144795187Y-121645663D01*
X144795185Y-121645668D01*
X144790325Y-121660334D01*
X144740001Y-121812203D01*
X144740001Y-121812204D01*
X144740000Y-121812204D01*
X144729500Y-121914983D01*
X131700276Y-121914983D01*
X131700276Y-113378711D01*
X134349500Y-113378711D01*
X134349500Y-113621288D01*
X134381161Y-113861785D01*
X134443947Y-114096104D01*
X134500059Y-114231570D01*
X134536776Y-114320212D01*
X134658064Y-114530289D01*
X134658066Y-114530292D01*
X134658067Y-114530293D01*
X134805733Y-114722736D01*
X134805739Y-114722743D01*
X134977256Y-114894260D01*
X134977263Y-114894266D01*
X135090321Y-114981018D01*
X135169711Y-115041936D01*
X135379788Y-115163224D01*
X135603900Y-115256054D01*
X135838211Y-115318838D01*
X136018586Y-115342584D01*
X136078711Y-115350500D01*
X136078712Y-115350500D01*
X136321289Y-115350500D01*
X136369388Y-115344167D01*
X136561789Y-115318838D01*
X136796100Y-115256054D01*
X137020212Y-115163224D01*
X137230289Y-115041936D01*
X137422738Y-114894265D01*
X137594265Y-114722738D01*
X137741936Y-114530289D01*
X137863224Y-114320212D01*
X137956054Y-114096100D01*
X138018838Y-113861789D01*
X138050500Y-113621288D01*
X138050500Y-113378712D01*
X138018838Y-113138211D01*
X137956054Y-112903900D01*
X137863224Y-112679788D01*
X137741936Y-112469711D01*
X137594265Y-112277262D01*
X137594260Y-112277256D01*
X137422743Y-112105739D01*
X137422736Y-112105733D01*
X137230293Y-111958067D01*
X137230292Y-111958066D01*
X137230289Y-111958064D01*
X137020212Y-111836776D01*
X137020205Y-111836773D01*
X136796104Y-111743947D01*
X136561785Y-111681161D01*
X136321289Y-111649500D01*
X136321288Y-111649500D01*
X136078712Y-111649500D01*
X136078711Y-111649500D01*
X135838214Y-111681161D01*
X135603895Y-111743947D01*
X135379794Y-111836773D01*
X135379785Y-111836777D01*
X135169706Y-111958067D01*
X134977263Y-112105733D01*
X134977256Y-112105739D01*
X134805739Y-112277256D01*
X134805733Y-112277263D01*
X134658067Y-112469706D01*
X134536777Y-112679785D01*
X134536773Y-112679794D01*
X134443947Y-112903895D01*
X134381161Y-113138214D01*
X134349500Y-113378711D01*
X131700276Y-113378711D01*
X131700276Y-108624000D01*
X131719961Y-108556961D01*
X131772765Y-108511206D01*
X131824276Y-108500000D01*
X185575724Y-108500000D01*
X185642763Y-108519685D01*
G37*
%TD.AperFunction*%
%TD*%
M02*
