M48
; DRILL file {KiCad 8.0.4} date 2024-07-22T18:33:50+0900
; FORMAT={-:-/ absolute / inch / decimal}
; #@! TF.CreationDate,2024-07-22T18:33:50+09:00
; #@! TF.GenerationSoftware,Kicad,Pcbnew,8.0.4
; #@! TF.FileFunction,Plated,1,2,PTH
FMAT,2
INCH
; #@! TA.AperFunction,Plated,PTH,ComponentDrill
T1C0.0236
; #@! TA.AperFunction,Plated,PTH,ComponentDrill
T2C0.0374
; #@! TA.AperFunction,Plated,PTH,ComponentDrill
T3C0.1063
%
G90
G05
T2
X5.7512Y-4.8303
X5.8008Y-4.4839
X5.8496Y-4.8303
X5.8992Y-4.4839
X5.948Y-4.8303
X6.0465Y-4.8303
X6.1366Y-4.4839
X6.235Y-4.4839
X6.3244Y-4.8303
X6.4228Y-4.8303
X6.4717Y-4.4839
X6.5213Y-4.8303
X6.5701Y-4.4839
X6.6197Y-4.8303
T3
X5.5059Y-3.7539
X5.5059Y-4.0374
X5.8622Y-3.7913
X5.8622Y-3.9882
X6.2553Y-3.7919
X6.2553Y-3.9887
X6.6484Y-3.7916
X6.6484Y-3.9885
X7.0087Y-3.7504
X7.0087Y-4.0339
T1
G00X5.248Y-3.6299
M15
G01X5.2913Y-3.6299
M16
G05
G00X5.248Y-4.1614
M15
G01X5.2913Y-4.1614
M16
G05
G00X7.2665Y-3.6264
M15
G01X7.2232Y-3.6264
M16
G05
G00X7.2665Y-4.1579
M15
G01X7.2232Y-4.1579
M16
G05
M30
